<svg width="45" height="36" viewBox="0 0 45 36" fill="none" xmlns="http://www.w3.org/2000/svg">
<path d="M22.5 0C23.7445 0 24.75 1.00547 24.75 2.25V6.75H33.1875C35.9859 6.75 38.25 9.01406 38.25 11.8125V30.9375C38.25 33.7359 35.9859 36 33.1875 36H11.8125C9.01406 36 6.75 33.7359 6.75 30.9375V11.8125C6.75 9.01406 9.01406 6.75 11.8125 6.75H20.25V2.25C20.25 1.00547 21.2555 0 22.5 0ZM14.625 27C14.0063 27 13.5 27.5063 13.5 28.125Cnan nan 14.0063 29.25 14.625 29.25H16.875C17.4937 29.25 18 28.7437 18 28.125Cnan nan 17.4937 27 16.875 27H14.625ZM21.375 27C20.7563 27 20.25 27.5063 20.25 28.125Cnan nan 20.7563 29.25 21.375 29.25H23.625C24.2437 29.25 24.75 28.7437 24.75 28.125Cnan nan 24.2437 27 23.625 27H21.375ZM28.125 27C27.5063 27 27 27.5063 27 28.125Cnan nan 27.5063 29.25 28.125 29.25H30.375C30.9937 29.25 31.5 28.7437 31.5 28.125Cnan nan 30.9937 27 30.375 27H28.125ZM18.5625 18C18.5625 16.4477 17.3023 15.1875 15.75 15.1875C14.1977 15.1875 12.9375 16.4477 12.9375 18C12.9375 19.5523 14.1977 20.8125 15.75 20.8125C17.3023 20.8125 18.5625 19.5523 18.5625 18ZM29.25 20.8125C30.8023 20.8125 32.0625 19.5523 32.0625 18C32.0625 16.4477 30.8023 15.1875 29.25 15.1875C27.6977 15.1875 26.4375 16.4477 26.4375 18C26.4375 19.5523 27.6977 20.8125 29.25 20.8125ZM3.375 15.75H4.5V29.25H3.375C1.51172 29.25 0 27.7383 0 25.875V19.125C0 17.2617 1.51172 15.75 3.375 15.75ZM41.625 15.75C43.4883 15.75 45 17.2617 45 19.125V25.875C45 27.7383 43.4883 29.25 41.625 29.25H40.5V15.75H41.625Z" fill="#FF7A00"/>
</svg>
